<?xml version="1.0" encoding="UTF-8"?>
<svg id="Calque_2" data-name="Calque 2" xmlns="http://www.w3.org/2000/svg" viewBox="0 0 38.94 38.94">
  <defs>
    <style>
      .cls-1 {
        fill: none;
      }

      .cls-1, .cls-2 {
        stroke-width: 0px;
      }

      .cls-2 {
        fill: #284a9a;
      }
    </style>
  </defs>
  <g id="Calque_1-2" data-name="Calque 1">
    <g>
      <g>
        <path class="cls-2" d="M19.34,22.92h-2.68v-3.57h2.68v-2.68c0-2.47,2-4.47,4.47-4.47h2.68v3.57h-2.68c-.49,0-.89.4-.89.89v2.68h3.57l-.61,2.45c1.19-1.92,1.89-4.18,1.89-6.61,0-6.93-5.62-12.55-12.55-12.55S2.67,8.26,2.67,15.19s5.62,12.55,12.55,12.55c1.45,0,2.83-.26,4.12-.71v-4.12Z"/>
        <path class="cls-2" d="M22.92,22.92v2.17c.81-.63,1.54-1.36,2.18-2.17h-2.18Z"/>
      </g>
      <rect class="cls-1" width="38.94" height="38.94"/>
    </g>
  </g>
</svg>