<?xml version="1.0" encoding="UTF-8"?>
<svg id="Calque_2" data-name="Calque 2" xmlns="http://www.w3.org/2000/svg" viewBox="0 0 38.94 38.94">
  <defs>
    <style>
      .cls-1 {
        fill: none;
      }

      .cls-1, .cls-2 {
        stroke-width: 0px;
      }

      .cls-2 {
        fill: #284a9a;
      }
    </style>
  </defs>
  <g id="Calque_1-2" data-name="Calque 1">
    <g>
      <path class="cls-2" d="M22.42,2.64c-6.93,0-12.55,5.62-12.55,12.55s5.62,12.55,12.55,12.55,12.55-5.62,12.55-12.55S29.35,2.64,22.42,2.64ZM20.23,24.22c-2.65.39-5.13-1.44-5.52-4.09-.39-2.65,1.44-5.13,4.09-5.52.47-.07.95-.07,1.43,0,2.12.31,3.78,1.98,4.09,4.09.39,2.65-1.44,5.13-4.09,5.52ZM27.34,13.5h-1.78v-1.78h1.78v1.78Z"/>
      <rect class="cls-1" width="38.94" height="38.94"/>
    </g>
  </g>
</svg>