<?xml version="1.0" encoding="utf-8"?>
<!-- Generator: Adobe Illustrator 22.1.0, SVG Export Plug-In . SVG Version: 6.00 Build 0)  -->
<svg version="1.1" id="Calque_1" xmlns="http://www.w3.org/2000/svg" xmlns:xlink="http://www.w3.org/1999/xlink" x="0px" y="0px"
	 viewBox="0 0 800 800" style="enable-background:new 0 0 800 800;" xml:space="preserve">
<style type="text/css">
	.st0{fill:none;stroke:#FFFFFF;stroke-width:40;stroke-linecap:square;stroke-linejoin:round;}
</style>
<g id="ic-social-media-linkedin">
	<path class="st0" d="M289,64h222c124.3,0,225,100.7,225,225v222c0,124.3-100.7,225-225,225H289C164.7,736,64,635.3,64,511V289
		C64,164.7,164.7,64,289,64z"/>
	<line class="st0" x1="214.3" y1="303" x2="214.3" y2="583"/>
	<path class="st0" d="M342.5,583V443c0-77.3,62.7-140,140-140l0,0l0,0c77.3,0,140,62.7,140,140l0,0v140"/>
	<line class="st0" x1="214.3" y1="213" x2="214.3" y2="208"/>
</g>
</svg>
