<?xml version="1.0" encoding="UTF-8"?>
<svg id="Calque_2" data-name="Calque 2" xmlns="http://www.w3.org/2000/svg" viewBox="0 0 38.94 38.94">
  <defs>
    <style>
      .cls-1, .cls-2 {
        stroke-width: 0px;
      }

      .cls-1, .cls-3 {
        fill: none;
      }

      .cls-2 {
        fill: #284a9a;
      }

      .cls-3 {
        stroke: #000;
        stroke-linecap: square;
        stroke-linejoin: bevel;
        stroke-width: 1.5px;
      }
    </style>
  </defs>
  <g id="Calque_1-2" data-name="Calque 1">
    <g>
      <path class="cls-2" d="M20.66,8.94c-2.98,0-5.71,1.04-7.86,2.78.95.01,1.71.78,1.71,1.73s-.78,1.73-1.73,1.73-1.73-.78-1.73-1.73c0,0,0,0,0-.01-1.83,2.18-2.93,4.99-2.93,8.05,0,6.93,5.62,12.55,12.55,12.55s12.55-5.62,12.55-12.55-5.62-12.55-12.55-12.55ZM14.51,28.19h-3.47v-10.41h3.47v10.41ZM28.38,28.19h-3.47v-6.07c0-.96-.78-1.73-1.73-1.73s-1.73.78-1.73,1.73v6.07h-3.47v-6.07c0-2.87,2.33-5.2,5.2-5.2s5.2,2.33,5.2,5.2v6.07Z"/>
      <path class="cls-3" d="M23.18,16.92c2.87,0,5.2,2.33,5.2,5.2v6.07h-3.47v-6.07c0-.96-.78-1.73-1.73-1.73s-1.73.78-1.73,1.73v6.07h-3.47v-6.07c0-2.87,2.33-5.2,5.2-5.2Z"/>
      <rect class="cls-3" x="11.04" y="17.79" width="3.47" height="10.41"/>
      <circle class="cls-3" cx="12.77" cy="13.45" r="1.73"/>
      <rect class="cls-3" x="7.47" y="7.47" width="24" height="24"/>
      <rect class="cls-1" width="38.94" height="38.94"/>
    </g>
  </g>
</svg>