<?xml version="1.0" encoding="UTF-8"?>
<svg id="Calque_2" data-name="Calque 2" xmlns="http://www.w3.org/2000/svg" viewBox="0 0 38.94 38.94">
  <defs>
    <style>
      .cls-1 {
        fill: none;
      }

      .cls-1, .cls-2 {
        stroke-width: 0px;
      }

      .cls-2 {
        fill: #284a9a;
      }
    </style>
  </defs>
  <g id="Calque_1-2" data-name="Calque 1">
    <g>
      <g>
        <path class="cls-2" d="M7.88,12.42v.59l11.21,7.13h2.26l3.28-2.08c.3-1.08.47-2.21.47-3.38,0-1.56-.3-3.05-.82-4.43h-14.23l-2.18,2.18Z"/>
        <path class="cls-2" d="M21.97,21.51l-.4.12h-2.7l-.4-.12-10.59-6.73v11.53c1.45.58,3.02.91,4.67.91,4.86,0,9.06-2.77,11.15-6.8l-1.73,1.1Z"/>
        <path class="cls-2" d="M6.38,12.11l.22-.53,2.62-2.62.53-.22h13.87c-2.12-3.94-6.27-6.62-11.06-6.62C5.62,2.12,0,7.74,0,14.67c0,4.68,2.57,8.76,6.38,10.92v-13.48Z"/>
      </g>
      <rect class="cls-1" width="38.94" height="38.94"/>
    </g>
  </g>
</svg>