<?xml version="1.0" encoding="utf-8"?>
<!-- Generator: Adobe Illustrator 22.1.0, SVG Export Plug-In . SVG Version: 6.00 Build 0)  -->
<svg version="1.1" id="Calque_1" xmlns="http://www.w3.org/2000/svg" xmlns:xlink="http://www.w3.org/1999/xlink" x="0px" y="0px"
	 viewBox="0 0 800 800" style="enable-background:new 0 0 800 800;" xml:space="preserve">
<style type="text/css">
	.st0{fill:#FFFFFF;}
</style>
<g id="Mail">
	<path class="st0" d="M647.8,135.5H152.2c-46,0-83.3,37.3-83.3,83.3v362.3c0,46,37.3,83.3,83.3,83.3h495.7c46,0,83.3-37.3,83.3-83.3
		V218.8C731.2,172.8,693.9,135.5,647.8,135.5z M152.2,168.8h495.7c26.2-0.1,47.9,20.2,49.7,46.3c-82.3,44-165,87.7-247.7,131.7
		c-11.2,7-23,12.9-35.3,17.7c-19.6,3.9-39.8-0.9-55.7-13c-47.3-25-94.7-50.3-141.7-75.3c-38-20-76.7-40.3-114.7-60.7
		C104.1,189.3,125.9,168.8,152.2,168.8L152.2,168.8z M697.8,581.2c0,27.6-22.4,50-50,50H152.2c-27.6,0-50-22.4-50-50V253.3
		c78.7,41.3,157,83.3,235.7,125c14.1,8.6,29.2,15.3,45,20c23.1,3.8,46.9-1.1,66.7-13.7c48.3-25.3,96.3-51,144.7-76.3
		c34.7-18.7,69-36.7,103.7-55V581.2z"/>
</g>
</svg>
