<?xml version="1.0" encoding="UTF-8"?>
<svg id="Calque_2" data-name="Calque 2" xmlns="http://www.w3.org/2000/svg" viewBox="0 0 38.94 38.94">
  <defs>
    <style>
      .cls-1, .cls-2 {
        stroke-width: 0px;
      }

      .cls-1, .cls-3 {
        fill: none;
      }

      .cls-2 {
        fill: #284a9a;
      }

      .cls-3 {
        stroke: #000;
        stroke-linejoin: bevel;
        stroke-width: 1.5px;
      }
    </style>
  </defs>
  <g id="Calque_1-2" data-name="Calque 1">
    <g>
      <path class="cls-2" d="M24.77,5.06c-6.93,0-12.55,5.62-12.55,12.55s5.62,12.55,12.55,12.55,12.55-5.62,12.55-12.55-5.62-12.55-12.55-12.55ZM25.15,25.08s-3.57.53-7.68-3.56c-4.11-4.09-3.53-7.65-3.53-7.65h2.54l.56,1.96-2.14,2.16,6.14,6.14,2.16-2.14,1.96.56v2.54Z"/>
      <path id="primary" class="cls-3" d="M28.87,27.97l-9.34,4.12-5.76-1.4-6.84,1.4,1.4-6.84-1.39-6.39,3.82-8.44,8.77-3.56,8.78,3.54,3.7,7.12-3.14,10.47ZM14.89,17.99l2.14-2.16-.56-1.96h-2.54s-.57,3.56,3.53,7.65c4.11,4.09,7.68,3.56,7.68,3.56v-2.54l-1.96-.56-2.16,2.14"/>
      <rect class="cls-1" width="38.94" height="38.94"/>
    </g>
  </g>
</svg>