<?xml version="1.0" encoding="utf-8"?>
<!-- Generator: Adobe Illustrator 22.1.0, SVG Export Plug-In . SVG Version: 6.00 Build 0)  -->
<svg version="1.1" id="Calque_1" xmlns="http://www.w3.org/2000/svg" xmlns:xlink="http://www.w3.org/1999/xlink" x="0px" y="0px"
	 viewBox="0 0 800 800" style="enable-background:new 0 0 800 800;" xml:space="preserve">
<style type="text/css">
	.st0{fill:none;stroke:#FFFFFF;stroke-width:40;stroke-linecap:square;stroke-linejoin:bevel;}
</style>
<g id="ic-social-media-whatsapp">
	<path class="st0" d="M433.8,65.5c-174.7,0-316.3,142.3-316.3,316.9C117.4,483.8,166,579,248,638.5l10.3,95.5l80.5-50
		c30.8,9.6,62.8,14.4,95,14.5c174.8,0,316.5-141.7,316.5-316.5S608.5,65.5,433.8,65.5L433.8,65.5z"/>
	<path class="st0" d="M396.5,295.5c11.1,10.9,11.2,28.8,0.3,40c-0.1,0.1-0.2,0.2-0.3,0.3l0,0c-11,11.2-11,29.1,0,40.3l61.3,61.3
		c11.2,11,29.1,11,40.3,0l0,0c10.9-11.1,28.8-11.2,40-0.3c0.1,0.1,0.2,0.2,0.3,0.3l41.5,41.5c11,11.2,11,29.1,0,40.3l-14.5,14.5
		c-3.9,3.8-8.7,6.4-14,7.8l0,0c-116.1,26.6-231.9-45.9-258.5-162.1c-7.3-31.7-7.3-64.7,0-96.4l0,0c1.2-5.3,3.8-10.2,7.8-14
		l14.5-14.5c10.9-11.1,28.8-11.2,40-0.3C355.1,254,396.5,295.5,396.5,295.5z"/>
</g>
</svg>
